<svg width="475" height="401" viewBox="0 0 475 401" fill="none" xmlns="http://www.w3.org/2000/svg">
<path d="M150.985 159.999C150.919 159.901 150.852 159.804 150.783 159.707C146.399 154.431 122.404 183.859 122.361 185.371C122.372 185.39 122.382 185.41 122.393 185.429C122.371 185.423 122.361 185.404 122.361 185.371C111.471 165.405 11.6961 218.555 11.7339 216.305C98.2549 135.858 140.305 144.906 150.783 159.707C150.856 159.795 150.923 159.892 150.985 159.999Z" fill="#FF0101"/>
<path d="M229.995 296.849C234.832 313.984 217.398 356.319 108.969 388.584C103.641 390.169 207.223 328.735 189.146 307.988C189.087 307.992 189.077 307.982 189.119 307.957C189.128 307.968 189.137 307.978 189.146 307.988C190.492 307.907 217.191 300.823 229.995 296.849Z" fill="#FF0101"/>
<path d="M150.985 159.999C150.919 159.901 150.852 159.804 150.783 159.707C146.399 154.431 122.404 183.859 122.361 185.371C122.372 185.39 122.382 185.41 122.393 185.429C122.371 185.423 122.361 185.404 122.361 185.371C111.471 165.405 11.6961 218.555 11.7339 216.305C98.2549 135.858 140.305 144.906 150.783 159.707C150.856 159.795 150.923 159.892 150.985 159.999Z" stroke="#101010" stroke-width="9"/>
<path d="M229.995 296.849C234.832 313.984 217.398 356.319 108.969 388.584C103.641 390.169 207.223 328.735 189.146 307.988C189.087 307.992 189.077 307.982 189.119 307.957C189.128 307.968 189.137 307.978 189.146 307.988C190.492 307.907 217.191 300.823 229.995 296.849Z" stroke="#101010" stroke-width="9"/>
<path d="M87.3853 233.747C209.775 64.937 360.942 72.3884 421.227 97.2153C399.949 243.339 221.224 303.549 134.521 315.388C118.028 288.625 85.5116 234.829 87.3853 233.747Z" fill="#00A459" stroke="#101010" stroke-width="9"/>
<circle cx="285.226" cy="173.059" r="34.0904" transform="rotate(60 285.226 173.059)" fill="#BCE8F7" stroke="#101010" stroke-width="6"/>
<path d="M110.428 212.606L116.087 205.717L171.879 303.823L163.892 305.207L110.428 212.606Z" fill="#FF0101" stroke="#101010" stroke-width="4"/>
<path d="M107.806 213.481L162.758 307.116L135.563 312.557L90.7452 234.93L107.806 213.481Z" fill="#00A459"/>
<rect x="189.62" y="220.226" width="10.6816" height="157.498" transform="rotate(60 189.62 220.226)" fill="#FF0101" stroke="#101010" stroke-width="4"/>
</svg>
