<svg width="467" height="387" viewBox="0 0 467 387" fill="none" xmlns="http://www.w3.org/2000/svg">
<path d="M149.986 158.197C149.925 158.108 149.862 158.019 149.798 157.93C145.68 153.115 121.154 181.623 121.061 183.047C121.071 183.065 121.08 183.083 121.09 183.101C121.068 183.096 121.059 183.078 121.061 183.047C111.066 164.632 11.4429 218.045 11.5567 215.926C99.1177 137.281 140.032 144.36 149.798 157.93C149.867 158.01 149.929 158.099 149.986 158.197Z" fill="#FF0101"/>
<path d="M222.774 284.269C226.931 300.227 208.396 340.656 101.002 374.713C95.7252 376.387 199.363 315.049 182.349 296.144C182.291 296.149 182.282 296.14 182.324 296.116C182.332 296.125 182.341 296.134 182.349 296.144C183.671 296.022 210.086 288.445 222.774 284.269Z" fill="#FF0101"/>
<path d="M83.3853 226.747C205.775 57.937 356.942 65.3884 417.227 90.2153C395.949 236.339 217.224 296.549 130.521 308.388C114.028 281.625 81.5116 227.829 83.3853 226.747Z" fill="#00A459"/>
<circle cx="281.226" cy="166.059" r="37.0904" transform="rotate(60 281.226 166.059)" fill="#BCE8F7"/>
<path d="M112.387 195.2L171.024 298.308L158.858 300.416L104.004 205.406L112.387 195.2Z" fill="#FF0101"/>
<path d="M103.806 206.481L158.758 300.116L131.563 305.557L86.745 227.93L103.806 206.481Z" fill="#00A459"/>
<rect x="186.352" y="210.494" width="14.6816" height="161.498" transform="rotate(60 186.352 210.494)" fill="#FF0101"/>
</svg>
