<svg width="65" height="131" viewBox="0 0 65 131" fill="none" xmlns="http://www.w3.org/2000/svg">
<ellipse cx="31.948" cy="102.731" rx="26.612" ry="15.9672" fill="#FF0101"/>
<path d="M50.9673 80.5045V6.54295C50.9673 4.80765 51.6426 3.14343 52.8447 1.91639C54.0468 0.689345 55.6771 0 57.3771 0L57.5566 0C59.2565 0 60.8869 0.689345 62.0889 1.91639C63.291 3.14343 63.9663 4.80765 63.9663 6.54295V98.5696C65.229 111.453 54.8645 124.676 39.1349 129.276C21.8927 134.327 4.72739 127.097 0.804623 113.128C-3.11814 99.1585 7.68228 83.7433 24.9309 78.6921C34.3533 75.9375 43.7435 76.8405 50.9673 80.5045ZM35.5839 116.628C46.4677 113.442 52.5377 104.785 50.775 98.5042C49.0059 92.2164 39.3657 88.1532 28.4819 91.3396C17.5982 94.5261 11.5281 103.182 13.2908 109.47C15.0599 115.751 24.7002 119.815 35.5839 116.628Z" fill="#FF0101"/>
</svg>
