<svg width="122" height="123" viewBox="0 0 122 123" fill="none" xmlns="http://www.w3.org/2000/svg">
<path d="M61.0005 69.3669V15.375H101.667V25.625H71.1672V87.125C71.1662 91.6376 69.6884 96.0237 66.9629 99.6032C64.2375 103.183 60.4167 105.756 56.0932 106.923C51.7696 108.09 47.1849 107.786 43.05 106.059C38.9151 104.331 35.461 101.277 33.2235 97.3684C30.986 93.4602 30.0901 88.9168 30.6747 84.4429C31.2593 79.969 33.2917 75.8146 36.4568 72.6239C39.6219 69.4332 43.7428 67.3846 48.1804 66.7957C52.618 66.2068 57.1243 67.1106 61.0005 69.3669ZM50.8339 97.375C53.5302 97.375 56.1161 96.2951 58.0228 94.3728C59.9294 92.4506 61.0005 89.8435 61.0005 87.125C61.0005 84.4065 59.9294 81.7994 58.0228 79.8772C56.1161 77.9549 53.5302 76.875 50.8339 76.875C48.1375 76.875 45.5516 77.9549 43.6449 79.8772C41.7383 81.7994 40.6672 84.4065 40.6672 87.125C40.6672 89.8435 41.7383 92.4506 43.6449 94.3728C45.5516 96.2951 48.1375 97.375 50.8339 97.375Z" fill="#FEFF01"/>
<ellipse cx="50.0128" cy="86.3297" rx="13.6398" ry="13.7516" fill="#FEFF01"/>
</svg>
