<svg width="1362" height="476" viewBox="0 0 1362 476" fill="none" xmlns="http://www.w3.org/2000/svg">
<path d="M25.3626 245.965C27.3927 270.791 44.3594 296.586 78.6548 321.961C112.797 347.223 162.039 370.415 223.482 389.934C346.213 428.922 514.23 452.19 698.232 449.969C882.235 447.748 1046.12 420.475 1162.24 378.604C1220.37 357.642 1265.73 333.308 1295.67 307.273C1325.75 281.121 1338.47 254.967 1336.44 230.142C1334.41 205.316 1317.45 179.521 1283.15 154.146C1249.01 128.884 1199.77 105.692 1138.32 86.1729C1015.59 47.1852 847.576 23.917 663.573 26.1378C479.571 28.3586 315.687 55.6325 199.569 97.5029C141.435 118.465 96.0804 142.799 66.1327 168.834C36.051 194.986 23.3325 221.14 25.3626 245.965ZM699.877 470.085C514.293 472.325 343.988 448.897 218.61 409.069C155.947 389.162 104.225 365.072 67.4023 337.827C30.6324 310.622 8.01915 279.715 5.27907 246.208C2.53898 212.7 20.0578 181.31 52.3101 153.271C84.6084 125.192 132.292 99.9017 191.579 78.5237C310.203 35.75 476.344 8.26174 661.928 6.02189C847.512 3.78204 1017.82 27.2096 1143.2 67.0384C1205.86 86.9446 1257.58 111.035 1294.4 138.28C1331.17 165.485 1353.79 196.392 1356.53 229.899C1359.27 263.407 1341.75 294.797 1309.5 322.836C1277.2 350.915 1229.51 376.205 1170.23 397.583C1051.6 440.357 885.461 467.845 699.877 470.085Z" fill="#FF2C00" stroke="#FF2C00" stroke-width="10"/>
</svg>
