<svg width="1360" height="262" viewBox="0 0 1360 262" fill="none" xmlns="http://www.w3.org/2000/svg">
<path d="M21.3284 21.8482L26.3122 21.788L26.7209 26.786C28.9327 53.832 47.1709 80.9198 81.7288 106.745C116.194 132.501 165.548 155.919 226.663 175.54C348.792 214.747 515.635 238.075 698.105 235.873C880.574 233.67 1043.28 206.366 1158.76 164.29C1216.55 143.235 1261.98 118.672 1292.17 92.1357C1322.44 65.5284 1336.21 38.0542 1334 11.0082L1333.59 6.01018L1338.58 5.95003L1348.67 5.82819L1353.65 5.76804L1354.06 10.766C1356.98 46.4162 1338.49 79.1162 1306.04 107.641C1273.51 136.239 1225.75 161.771 1166.79 183.25C1048.79 226.244 883.815 253.767 699.75 255.989C515.684 258.21 346.535 234.719 221.742 194.656C159.397 174.641 107.557 150.311 70.4135 122.554C33.3651 94.868 9.57413 62.6783 6.65881 27.0281L6.25009 22.0301L11.234 21.97L21.3284 21.8482Z" fill="#FF2C00" stroke="#FF2C00" stroke-width="10"/>
</svg>
