<svg width="1709" height="1712" viewBox="0 0 1709 1712" fill="none" xmlns="http://www.w3.org/2000/svg">
<ellipse cx="477.342" cy="476.567" rx="477.342" ry="476.567" transform="matrix(-0.0349433 -1.00047 -0.997996 0.0427949 1347.07 1313.47)" fill="#00A459"/>
<path d="M578.93 705.011C369.503 789.23 415.653 627.249 503.092 534.667C589.286 432.958 708.233 401.928 709.957 401.928C916.822 372.622 999.499 521.504 820.285 546.734C679.999 546.734 678.999 555.504 665.999 565.004C571.186 652.922 809.943 622.004 809.943 736.36C804.794 901.112 770.601 975.314 627.423 953.863C626.168 953.675 624.814 953.249 623.675 952.691C462.488 873.71 704.478 725.974 586.15 704.236C583.836 703.811 581.113 704.133 578.93 705.011Z" fill="#B77DFE"/>
<path d="M1014.08 1169.88C1201.02 1197.46 1095.83 1288.27 986.406 1314C872.5 1356.5 747.5 1326.93 736.5 1322.5C570.887 1255.8 599.916 1111.12 743.324 1169.02C847.143 1228.96 851.63 1222.9 865.31 1221.42C973.041 1196.87 694.463 1161.63 743.324 1077C817.483 957.347 1004.99 941.701 1103.01 1018.81C1104 1019.6 1104.93 1020.62 1105.64 1021.67C1189.35 1146.05 977.559 1105.73 1005.04 1163.78C1006.65 1167.2 1010.34 1169.33 1014.08 1169.88Z" fill="#B77DFE"/>
<path d="M1116 593.501C1116 414.501 1242 539.501 1304 685.501C1337 778.001 1330 873.001 1330 880.501C1314 1120.5 1173.3 1036.45 1204.36 912.281C1241.61 820.33 1236.13 817.346 1233.35 806.302C1200.91 720.809 1196 761.001 1108 818.501C1012 866.501 916.078 813.742 992.501 728.001C1054 659.001 1116 636.501 1116 593.501Z" fill="#B77DFE"/>
</svg>
