<svg width="355" height="299" viewBox="0 0 355 299" fill="none" xmlns="http://www.w3.org/2000/svg">
<path d="M241.556 179.561C241.605 179.634 241.655 179.706 241.707 179.779C244.978 183.715 262.883 161.757 262.914 160.629C262.906 160.615 262.899 160.6 262.891 160.586C262.907 160.59 262.915 160.605 262.914 160.629C271.041 175.527 345.49 135.868 345.462 137.547C280.902 197.575 249.525 190.823 241.707 179.779C241.652 179.713 241.602 179.641 241.556 179.561Z" fill="#FEFF01"/>
<path d="M182.6 77.447C178.991 64.6615 192 33.0718 272.908 8.9965C276.883 7.81362 199.592 53.6541 213.081 69.1352C213.125 69.1326 213.133 69.14 213.101 69.1583C213.094 69.1506 213.088 69.1429 213.081 69.1352C212.077 69.1955 192.155 74.4817 182.6 77.447Z" fill="#FEFF01"/>
<path d="M241.556 179.561C241.605 179.634 241.655 179.706 241.707 179.779C244.978 183.715 262.883 161.757 262.914 160.629C262.906 160.615 262.899 160.6 262.891 160.586C262.907 160.59 262.915 160.605 262.914 160.629C271.041 175.527 345.49 135.868 345.462 137.547C280.902 197.575 249.525 190.823 241.707 179.779C241.652 179.713 241.602 179.641 241.556 179.561Z" stroke="#101010" stroke-width="9"/>
<path d="M182.6 77.447C178.991 64.6615 192 33.0718 272.908 8.9965C276.883 7.81362 199.592 53.6541 213.081 69.1352C213.125 69.1326 213.133 69.14 213.101 69.1583C213.094 69.1506 213.088 69.1429 213.081 69.1352C212.077 69.1955 192.155 74.4817 182.6 77.447Z" stroke="#101010" stroke-width="9"/>
<path d="M289.012 124.533C197.688 250.494 84.8908 244.934 39.9076 226.409C55.7852 117.375 189.145 72.4481 253.841 63.6137C266.147 83.5837 290.411 123.725 289.012 124.533Z" fill="#B77DFE" stroke="#101010" stroke-width="9"/>
<circle cx="141.388" cy="169.816" r="24.676" transform="rotate(-120 141.388 169.816)" fill="#BCE8F7" stroke="#101010" stroke-width="6"/>
<path d="M271.203 140.257L267.673 144.554L226.764 72.6199L231.663 71.771L271.203 140.257Z" fill="#FEFF01" stroke="#101010" stroke-width="4"/>
<path d="M273.775 139.654L232.771 69.7858L253.064 65.7262L286.506 123.649L273.775 139.654Z" fill="#B77DFE"/>
<rect x="212.913" y="133.928" width="6.95507" height="116.506" transform="rotate(-120 212.913 133.928)" fill="#FEFF01" stroke="#101010" stroke-width="4"/>
</svg>
