<svg width="346" height="263" viewBox="0 0 346 263" fill="none" xmlns="http://www.w3.org/2000/svg">
<path d="M114.669 102.489C114.631 102.422 114.592 102.356 114.552 102.289C111.913 98.6643 91.5971 117.789 91.4142 118.798C91.4199 118.812 91.4255 118.825 91.4311 118.838C91.4157 118.834 91.4102 118.82 91.4142 118.798C85.5497 105.209 8.04531 138.476 8.2993 136.973C78.9688 85.1643 108.466 92.1608 114.552 102.289C114.596 102.349 114.635 102.416 114.669 102.489Z" fill="#FEFF01"/>
<path d="M158.021 195.73C159.792 207.29 142.921 235.189 61.2617 254.303C57.2495 255.242 138.341 216.525 127.359 202.252C127.316 202.253 127.309 202.246 127.342 202.23C127.348 202.237 127.353 202.245 127.359 202.252C128.34 202.228 148.361 198.097 158.021 195.73Z" fill="#FEFF01"/>
<path d="M59.4384 146.443C161.525 29.0344 273.391 44.5296 316.564 66.9532C291.123 174.16 154.318 207.14 89.0952 210.229C78.5996 189.251 57.9744 147.124 59.4384 146.443Z" fill="#B77DFE"/>
<circle cx="210.483" cy="114.367" r="27.676" transform="rotate(65.0642 210.483 114.367)" fill="#BCE8F7"/>
<path d="M83.0723 124.906L119.864 205.404L110.682 206.17L76.1687 131.94L83.0723 124.906Z" fill="#FEFF01"/>
<path d="M75.9508 132.726L110.628 205.941L90.0557 208.193L61.8574 147.544L75.9508 132.726Z" fill="#B77DFE"/>
<rect x="137.04" y="141.145" width="10.9551" height="120.506" transform="rotate(65.0642 137.04 141.145)" fill="#FEFF01"/>
</svg>
