<svg width="428" height="229" viewBox="0 0 428 229" fill="none" xmlns="http://www.w3.org/2000/svg">
<path d="M156.339 36.3276C156.331 36.2102 156.321 36.0923 156.31 35.974C155.151 29.2128 119.657 42.7003 118.865 43.9886C118.864 44.0107 118.863 44.0328 118.863 44.0549C118.846 44.0388 118.847 44.0166 118.865 43.9886C119.416 21.2523 6.43341 17.3943 7.59137 15.4642C122.744 -10.9441 154.637 17.9168 156.31 35.974C156.33 36.0862 156.339 36.204 156.339 36.3276Z" fill="#00A459"/>
<path d="M156.339 194.348C151.961 211.606 115.694 239.552 5.65957 213.28C0.253226 211.989 120.675 210.577 115.393 183.571C115.34 183.544 115.337 183.53 115.385 183.53C115.388 183.544 115.391 183.557 115.393 183.571C116.599 184.173 143.263 191.388 156.339 194.348Z" fill="#00A459"/>
<path d="M156.339 36.3276C156.331 36.2102 156.321 36.0923 156.31 35.974C155.151 29.2128 119.657 42.7003 118.865 43.9886C118.864 44.0107 118.863 44.0328 118.863 44.0549C118.846 44.0388 118.847 44.0166 118.865 43.9886C119.416 21.2523 6.43341 17.3943 7.59137 15.4642C122.744 -10.9441 154.637 17.9168 156.31 35.974C156.33 36.0862 156.339 36.204 156.339 36.3276Z" stroke="#101010" stroke-width="9"/>
<path d="M156.339 194.348C151.961 211.606 115.694 239.552 5.65957 213.28C0.253226 211.989 120.675 210.577 115.393 183.571C115.34 183.544 115.337 183.53 115.385 183.53C115.388 183.544 115.391 183.557 115.393 183.571C116.599 184.173 143.263 191.388 156.339 194.348Z" stroke="#101010" stroke-width="9"/>
<path d="M64.3863 68.3955C254.784 -16.6034 381.973 65.4334 421.768 117.077C330.278 232.984 145.393 195.765 64.3863 162.667C63.4848 131.243 62.2227 68.3955 64.3863 68.3955Z" fill="#FF0101" stroke="#101010" stroke-width="9"/>
<circle cx="266.065" cy="114.758" r="34.0904" transform="rotate(90 266.065 114.758)" fill="#BCE8F7" stroke="#101010" stroke-width="6"/>
<path d="M94.9127 61.6078L103.257 58.4716L102.522 171.33L94.9126 168.534L94.9127 61.6078Z" fill="#00A459" stroke="#101010" stroke-width="4"/>
<path d="M92.2038 61.0547L92.9766 169.621L66.7042 160.735L66.7042 71.1L92.2038 61.0547Z" fill="#FF0101"/>
<rect x="159.685" y="107.803" width="10.6816" height="157.498" transform="rotate(90 159.685 107.803)" fill="#00A459" stroke="#101010" stroke-width="4"/>
</svg>
