<svg width="422" height="196" viewBox="0 0 422 196" fill="none" xmlns="http://www.w3.org/2000/svg">
<path d="M156 28.1686C155.992 28.0637 155.982 27.9583 155.971 27.8525C154.811 21.8075 119.283 33.8663 118.49 35.0182C118.489 35.038 118.488 35.0577 118.488 35.0774C118.471 35.063 118.472 35.0432 118.49 35.0182C119.042 14.6901 5.95154 11.2408 7.1106 9.51518C122.373 -14.096 154.296 11.708 155.971 27.8525C155.99 27.9528 156 28.0582 156 28.1686Z" fill="#00A459"/>
<path d="M156 169.451C151.617 184.881 115.316 209.867 5.17696 186.378C-0.23452 185.224 120.302 183.961 115.015 159.815C114.962 159.792 114.958 159.779 115.007 159.779C115.01 159.791 115.012 159.803 115.015 159.815C116.222 160.354 142.912 166.804 156 169.451Z" fill="#00A459"/>
<path d="M64.3863 52.3955C254.784 -32.6034 381.973 49.4334 421.768 101.077C330.278 216.984 145.393 179.765 64.3863 146.667C63.4848 115.243 62.2227 52.3955 64.3863 52.3955Z" fill="#FF0101"/>
<circle cx="266.065" cy="98.7584" r="37.0904" transform="rotate(90 266.065 98.7584)" fill="#BCE8F7"/>
<path d="M105.276 39.5762L104.503 158.188L92.9126 153.93L92.9127 44.2229L105.276 39.5762Z" fill="#00A459"/>
<path d="M92.2038 45.0547L92.9766 153.621L66.7042 144.735L66.7042 55.1L92.2038 45.0547Z" fill="#FF0101"/>
<rect x="161.685" y="89.8032" width="14.6816" height="161.498" transform="rotate(90 161.685 89.8032)" fill="#00A459"/>
</svg>
