<svg width="619" height="394" viewBox="0 0 619 394" fill="none" xmlns="http://www.w3.org/2000/svg">
<rect x="289.771" y="252.548" width="19.2195" height="141.452" fill="#FF2C00"/>
<rect width="618.72" height="262.882" transform="translate(0.000244141)" fill="#FF2C00"/>
<path d="M114.248 94.1209C116.211 94.1209 117.918 94.6756 119.368 95.7849C120.904 96.8942 121.928 98.4302 122.44 100.393L146.632 182.441L122.056 182.441L106.568 121.513C106.227 120.062 105.928 118.526 105.672 116.905C105.416 115.198 105.16 113.62 104.904 112.169L101.448 112.169C101.278 113.62 101.022 115.198 100.68 116.905C100.424 118.526 100.126 120.062 99.7844 121.513L84.2964 182.441L59.7204 182.441L83.9124 100.393C84.4244 98.4302 85.4057 96.8942 86.8564 95.7849C88.3924 94.6756 90.1417 94.1209 92.1044 94.1209L114.248 94.1209ZM126.408 144.169L126.408 161.449L79.9444 161.449L79.9444 144.169L126.408 144.169ZM178.241 94.1209L178.241 182.441L154.177 182.441L154.177 94.1209L178.241 94.1209ZM205.633 94.1209L205.633 110.249L177.217 110.249L177.217 94.1209L205.633 94.1209ZM228.289 94.1209L228.289 182.441L204.225 182.441L204.225 94.1209L228.289 94.1209ZM280.645 142.633L280.645 156.713L242.885 156.713L242.885 142.633L280.645 142.633ZM324.233 92.5849C330.633 92.5849 336.137 93.1822 340.745 94.3769C345.439 95.4863 349.065 97.5769 351.625 100.649C354.271 103.721 355.593 108.158 355.593 113.961C355.593 117.118 355.252 120.02 354.569 122.665C353.887 125.31 352.521 128.084 350.473 130.985C348.511 133.886 345.567 137.342 341.641 141.353L319.753 163.113C321.801 162.601 323.807 162.26 325.769 162.089C327.817 161.918 329.951 161.876 332.169 161.961L357.897 161.961L357.897 182.441L291.849 182.441L291.849 170.153C291.849 168.19 292.105 166.441 292.617 164.905C293.129 163.369 293.983 161.876 295.177 160.425L315.273 139.945C320.223 134.825 324.105 130.302 326.921 126.377C329.737 122.452 331.103 119.252 331.017 116.777C331.017 115.497 330.676 114.601 329.993 114.089C329.311 113.492 328.244 113.108 326.793 112.937C325.428 112.681 323.593 112.553 321.289 112.553C318.217 112.553 315.359 112.596 312.713 112.681C310.068 112.681 307.209 112.724 304.137 112.809C301.065 112.894 297.524 113.022 293.513 113.193L292.617 95.5289C296.969 94.6756 300.895 94.0356 304.393 93.6089C307.977 93.1822 311.391 92.9262 314.633 92.8409C317.876 92.6702 321.076 92.5849 324.233 92.5849ZM394.354 93.4809L394.354 125.481L391.922 153.897L373.746 153.897L371.314 125.481L371.314 93.4809L394.354 93.4809ZM385.522 160.681C388.594 160.681 390.685 161.278 391.794 162.473C392.989 163.582 393.586 165.673 393.586 168.745L393.586 174.377C393.586 177.449 392.989 179.582 391.794 180.777C390.685 181.886 388.594 182.441 385.522 182.441L380.274 182.441C377.202 182.441 375.069 181.886 373.874 180.777C372.765 179.582 372.21 177.449 372.21 174.377L372.21 168.745C372.21 165.673 372.765 163.582 373.874 162.473C375.069 161.278 377.202 160.681 380.274 160.681L385.522 160.681ZM467.878 94.1209L467.11 111.657L430.63 111.657L429.734 124.201L444.582 126.121C449.788 126.633 454.054 127.785 457.382 129.577C460.71 131.284 463.356 133.46 465.318 136.105C467.281 138.75 468.646 141.694 469.414 144.937C470.182 148.18 470.566 151.593 470.566 155.177C470.566 159.102 470.054 162.814 469.03 166.313C468.006 169.812 466.257 172.884 463.782 175.529C461.393 178.174 458.108 180.265 453.926 181.801C449.83 183.252 444.625 183.977 438.31 183.977C433.873 183.977 428.924 183.764 423.462 183.337C418.086 182.91 412.582 182.27 406.95 181.417L409.126 163.497C413.393 163.753 417.489 164.009 421.414 164.265C425.425 164.521 428.966 164.649 432.038 164.649C435.964 164.649 438.95 164.308 440.998 163.625C443.046 162.857 444.497 161.748 445.35 160.297C446.204 158.761 446.673 156.798 446.758 154.409C446.929 152.276 446.716 150.569 446.118 149.289C445.606 147.924 444.71 146.857 443.43 146.089C442.15 145.236 440.486 144.638 438.438 144.297C436.39 143.956 433.873 143.657 430.886 143.401L417.062 141.737C415.014 141.481 413.35 140.628 412.07 139.177C410.79 137.641 410.193 135.892 410.278 133.929L412.582 94.1209L467.878 94.1209ZM516.076 92.3289C525.036 92.3289 532.162 93.7796 537.452 96.6809C542.743 99.4969 546.54 104.276 548.844 111.017C551.148 117.673 552.3 126.761 552.3 138.281C552.3 149.801 551.148 158.932 548.844 165.673C546.54 172.329 542.743 177.108 537.452 180.009C532.162 182.825 525.036 184.233 516.076 184.233C507.202 184.233 500.119 182.825 494.828 180.009C489.538 177.108 485.74 172.329 483.436 165.673C481.218 158.932 480.108 149.801 480.108 138.281C480.108 126.761 481.218 117.673 483.436 111.017C485.74 104.276 489.538 99.4969 494.828 96.6809C500.119 93.7796 507.202 92.3289 516.076 92.3289ZM515.948 110.505C513.559 110.505 511.554 110.889 509.932 111.657C508.396 112.34 507.159 113.662 506.22 115.625C505.367 117.502 504.77 120.276 504.428 123.945C504.087 127.614 503.916 132.393 503.916 138.281C503.916 144.169 504.087 148.948 504.428 152.617C504.77 156.286 505.367 159.102 506.22 161.065C507.159 162.942 508.396 164.265 509.932 165.033C511.554 165.716 513.559 166.057 515.948 166.057C518.423 166.057 520.471 165.716 522.092 165.033C523.714 164.265 524.994 162.942 525.932 161.065C526.871 159.102 527.511 156.286 527.852 152.617C528.279 148.948 528.492 144.169 528.492 138.281C528.492 132.393 528.279 127.614 527.852 123.945C527.511 120.276 526.871 117.502 525.932 115.625C524.994 113.662 523.714 112.34 522.092 111.657C520.471 110.889 518.423 110.505 515.948 110.505Z" fill="white"/>
</svg>
